<?xml version="1.0" encoding="utf-8"?>
<!-- Generator: Adobe Illustrator 22.0.0, SVG Export Plug-In . SVG Version: 6.00 Build 0)  -->
<svg version="1.1" id="Capa_1" xmlns="http://www.w3.org/2000/svg" xmlns:xlink="http://www.w3.org/1999/xlink" x="0px" y="0px"
	 viewBox="0 0 2290.3 583.9" style="enable-background:new 0 0 2290.3 583.9;" xml:space="preserve">
<style type="text/css">
	.st0{fill:none;stroke:#FFFFFF;stroke-width:30;stroke-miterlimit:10;}
	.st1{fill:none;stroke:#FFFFFF;stroke-width:20;stroke-miterlimit:10;}
	.st2{fill:none;stroke:#FFFFFF;stroke-width:5;stroke-miterlimit:10;}
	.st3{enable-background:new    ;}
	.st4{fill:#FF0000;}
	.st5{fill:#FFFFFF;}
</style>
<g>
	<path class="st0" d="M849.4,229.7"/>
	<path class="st0" d="M855.7,312.5"/>
	<path class="st1" d="M878.2,401.6c3-1.2,33.6-10.9,11.5-39.3c-0.8-1.1-39.5-53.4-40.5-54.5"/>
	<circle class="st1" cx="860.1" cy="410.1" r="14.3"/>
	<circle class="st1" cx="841.1" cy="291.7" r="14.3"/>
	<circle class="st1" cx="841.1" cy="210.4" r="14.3"/>
	<path class="st2" d="M790,249.4"/>
	<polyline class="st1" points="816.3,528.1 838.9,504.6 838.9,476.3 	"/>
	<circle class="st1" cx="406.2" cy="296" r="14.3"/>
	<circle class="st1" cx="441.6" cy="385.1" r="14.3"/>
	<path class="st1" d="M452.3,399.7c32.4,39,34.9,80.4,35.1,85.9c0,0.3,0.2,26.2,0.4,42.5"/>
	<path class="st1" d="M839.6,201.5c-5.9-50.3-46.6-95.2-90.6-112.3C541,8.7,401.4,143.8,406.6,281.4"/>
	<path class="st1" d="M178.7,528.2c-9.8-15.7-6-36-0.3-45.7c0.5-1.1,1.4-4.9-4.6-12.8c-13.2-17.6-0.6-23.8-0.6-23.8
		s-20.1-13.2-10.7-28.2c7.5-15.1-5.1-16.2-13.2-19.4c-3.1-1.3-36-11.6-8.8-42.7c17.6-20.1,13.8-22,31.4-46.4
		c8.3-11.6,11.1-19.7,5-33.9c-11.3-26.3-1-42.8,1.3-48.9c3.8-10,14.4-43.3,25.1-70.3c5-12.6,12.7-21.5,15.7-24.5
		c27-30.1,39.6-37.8,59.6-45.8C547.8-21.5,704,241.3,575.4,396.2c-31.7,38.2-34.8,78.7-35.1,85.6c0,0.5,0.2,29.7,0.3,46.3"/>
	<circle class="st1" cx="839.4" cy="465.5" r="14.3"/>
</g>
<g class="st3">
	<path class="st4" d="M1191.2,359.1H1153v-43.9h-122.1v43.9h-38.2V245.4h38.2v44.2H1153v-44.2h38.2V359.1z"/>
	<path class="st4" d="M1258.9,245.4v55.4c0,20.9,19.6,31.4,58.9,31.4h63.2v-86.8h38.2v113.7h-111.3c-13.3,0-25.4-1.3-36.1-3.9
		c-10.7-2.6-19.9-6.4-27.4-11.5c-7.6-5.1-13.4-11.4-17.5-18.8c-4.1-7.5-6.2-16.1-6.2-25.8v-53.6H1258.9z"/>
</g>
<g class="st3">
	<path class="st5" d="M1445.5,245.4h157.9c11.7,0,22.4,1.3,32,3.8c9.7,2.5,18,6.1,24.8,10.7c6.9,4.6,12.3,10.1,16.1,16.5
		c3.8,6.4,5.7,13.4,5.7,21.1v61.6h-38.2v-56.9c0-20-13.5-30.1-40.5-30.1h-119.9v86.9h-38V245.4z M1542,286.1h38.5v73H1542V286.1z"/>
	<path class="st5" d="M1915.1,359.1h-38.5v-44h-128.2v44h-38.2v-57c0-8.9,1.8-16.8,5.3-23.9c3.5-7,8.6-13,15.3-17.9
		c6.7-4.9,14.9-8.6,24.6-11.1c9.7-2.5,20.8-3.8,33.3-3.8h126.4V359.1z M1876.6,272.2h-69.3c-11.5,0-20.8,0.4-27.8,1.3
		c-7,0.9-12.4,2.1-16.4,3.7c-4,1.6-6.8,3.5-8.5,5.7c-1.7,2.2-3,4.6-3.7,7.2h125.7V272.2z"/>
	<path class="st5" d="M2157.7,359.1h-40.5c-21.7-21.4-43-39-63.8-52.6c-20.8-13.6-41.4-23.3-62-28.9c-1.5-0.3-3.1-0.7-4.8-1.2
		c-1.7-0.5-3.6-1-5.5-1.5c0.5,4.1,0.7,6.8,0.7,8v76.4h-37.3V245.4h33.1c12.6,2.9,24.9,6.7,37,11.4c12.1,4.7,23.8,10,35.3,15.9
		c11.5,6,22.6,12.5,33.3,19.5c10.7,7,21,14.4,30.9,22.1l7,5.4c-0.4-3.4-0.7-5.8-0.7-7.5v-66.8h37.3V359.1z"/>
</g>
<g class="st3">
	<path class="st4" d="M1029,459.7h64.7c5.6,0,10-1.5,13.2-4.5c3.1-3,5.1-7.3,6-12.9h-96.7v86.9h-27.6V415.5h151.1v21.8
		c0,28.7-14,44.5-41.9,47.4l43.2,44.5h-33.5l-43.9-44H1029V459.7z"/>
	<path class="st4" d="M1303,415.5v57.2c0,8.9-1.3,16.8-3.8,23.8c-2.5,7-6.2,12.9-11,17.8c-4.8,4.9-10.8,8.6-17.8,11.1
		c-7,2.5-15.1,3.8-24,3.8H1152v-57c0-8.7,1.3-16.5,3.8-23.5c2.5-7,6.3-12.9,11.1-17.9c4.9-4.9,10.8-8.7,17.9-11.4c7-2.7,15.1-4,24-4
		H1303z M1275.3,442.3h-66c-5.7,0-10.5,0.5-14.3,1.5c-3.8,1-6.8,2.6-9.1,5c-2.3,2.3-3.9,5.4-4.9,9.3s-1.5,8.8-1.5,14.6v29.6h66
		c5.5,0,10.2-0.5,14-1.4c3.8-0.9,6.8-2.5,9.2-4.8c2.3-2.3,4-5.4,5-9.3c1-3.9,1.5-8.8,1.5-14.6V442.3z"/>
</g>
<g class="st3">
	<path class="st5" d="M1330.3,415.5h120.1c20.8,0,31.2,9.6,31.2,28.8c0,15.7-6.6,24.7-19.7,27c6.3,1.3,11.1,4.3,14.5,9.1
		c3.4,4.8,5.1,11.4,5.1,20c0,19.3-10.4,28.9-31.2,28.9h-120.1V415.5z M1357.9,502.9h85.1c6.2,0,9.3-2.9,9.3-8.8
		c0-6.4-3.1-9.6-9.3-9.6h-65.6v-24.2h65.6c6.2,0,9.3-3.3,9.3-9.9c0-5.5-3.1-8.3-9.3-8.3h-85.1V502.9z"/>
	<path class="st5" d="M1594.9,415.5c8.9,0,16.8,1.3,23.9,4c7,2.7,13,6.4,17.9,11.4c4.9,4.9,8.6,10.9,11.1,17.9
		c2.5,7,3.8,14.8,3.8,23.5v57h-94.1c-9.1,0-17.2-1.3-24.2-3.8c-7-2.5-13-6.3-17.8-11.1c-4.8-4.9-8.5-10.8-11-17.8
		c-2.5-7-3.8-14.9-3.8-23.8v-57.2H1594.9z M1528.3,472.2c0,5.8,0.5,10.7,1.5,14.6c1,3.9,2.7,7,5,9.3c2.3,2.3,5.4,3.9,9.2,4.8
		c3.8,0.9,8.4,1.4,14,1.4h66v-29.6c0-5.8-0.5-10.7-1.5-14.6s-2.6-7-4.9-9.3c-2.3-2.3-5.3-4-9.2-5c-3.8-1-8.6-1.5-14.2-1.5h-66V472.2
		z"/>
	<path class="st5" d="M1806,442.3h-52.3v86.9h-27.6v-86.9h-19.2c-12,0-18.5,5.8-19.5,17.4h-26.2c2.4-29.5,19.1-44.2,50-44.2h94.7
		V442.3z"/>
	<path class="st5" d="M1848.9,529.2h-27.6V415.5h27.6V529.2z"/>
	<path class="st5" d="M2011.4,529.2h-142v-57c0-8.9,1.3-16.8,3.8-23.9c2.5-7,6.2-13,11-17.9c4.8-4.9,10.7-8.6,17.8-11.1
		c7-2.5,15.1-3.8,24.2-3.8h85.1v26.8h-84.6c-19.8,0-29.7,10.1-29.7,30.4v29.6h114.4V529.2z"/>
	<path class="st5" d="M2167,442.3h-93.1c-11.6,0-18.1,5.8-19.5,17.4h113.1v21.6c0,32-17.2,47.9-51.7,47.9h-87.7v-27h93.6
		c5.6,0,10-1.5,13.2-4.4c3.2-2.9,5.2-7.1,6.1-12.7h-112.9v-21.8c0-32,17.3-47.9,51.8-47.9h87.1V442.3z"/>
</g>
</svg>
